<svg width="20" height="21" viewBox="0 0 20 21" fill="none" xmlns="http://www.w3.org/2000/svg">
<path fill-rule="evenodd" clip-rule="evenodd" d="M7.73059 1.91686L7.03214 2.61013C6.81011 2.82864 6.50594 2.95293 6.1898 2.95293H5.18861C3.42182 2.95293 1.9887 4.37384 1.9887 6.12555V7.11598C1.9887 7.42997 1.86325 7.73088 1.63886 7.95489L0.933032 8.65539C-0.315636 9.89866 -0.309945 11.9075 0.943792 13.1432L1.64087 13.8351C1.86291 14.0557 1.9887 14.3574 1.9887 14.6701V15.6624C1.9887 17.4141 3.42177 18.8341 5.18861 18.8341H6.1898C6.5051 18.8341 6.80951 18.9587 7.03516 19.1808L7.74095 19.8804C8.99671 21.1181 11.0235 21.1124 12.2692 19.8694L12.9668 19.1788C13.1901 18.9586 13.4941 18.8341 13.8102 18.8341H14.8104C16.578 18.8341 18.0113 17.4143 18.0113 15.6624V14.6701C18.0113 14.3566 18.1367 14.0551 18.3585 13.8347L19.0669 13.1325C20.3152 11.8883 20.3091 9.88097 19.0566 8.64513L18.3576 7.95237C18.1363 7.73148 18.0113 7.4308 18.0113 7.11598V6.12555C18.0113 4.37363 16.5779 2.95293 14.8104 2.95293H13.8102C13.4932 2.95293 13.1895 2.82881 12.9656 2.60798L12.2564 1.90597C11.004 0.670168 8.97747 0.675374 7.73059 1.91686ZM10.7478 3.22438L10.8865 3.34918L11.5531 4.01131C12.1537 4.60377 12.9648 4.93523 13.8102 4.93523H14.8104C15.4733 4.93523 16.0113 5.46841 16.0113 6.12555V7.11598C16.0113 7.95418 16.3451 8.75689 16.9409 9.35158L17.644 10.0484C18.1159 10.514 18.1182 11.2669 17.6439 11.7395L16.9434 12.4339C16.3462 13.0272 16.0113 13.8324 16.0113 14.6701V15.6624C16.0113 16.3192 15.4737 16.8518 14.8104 16.8518H13.8102C12.965 16.8518 12.1538 17.184 11.5548 17.775L10.853 18.4696C10.4147 18.907 9.72358 18.938 9.25095 18.5633L9.15081 18.4744L8.44689 17.7767C7.84453 17.1838 7.03374 16.8518 6.1898 16.8518H5.18861C4.52621 16.8518 3.9887 16.3192 3.9887 15.6624V14.6701C3.9887 13.8327 3.653 13.0274 3.05643 12.4347L2.35651 11.74C1.91518 11.305 1.8839 10.6199 2.26166 10.1522L2.35602 10.0484L3.05606 9.35361C3.65403 8.7567 3.9887 7.95391 3.9887 7.11598V6.12555C3.9887 5.46849 4.52654 4.93523 5.18861 4.93523H6.1898C7.03401 4.93523 7.84472 4.60394 8.44436 4.0138L9.14693 3.31645C9.58457 2.88071 10.2759 2.84996 10.7478 3.22438Z" fill="#F42B55"/>
</svg>
