<svg width="24" height="24" viewBox="0 0 24 24" fill="none" xmlns="http://www.w3.org/2000/svg">
<path fill-rule="evenodd" clip-rule="evenodd" d="M2.10579 1.55301C2.33514 1.09431 2.86945 0.888905 3.34011 1.05965L3.44743 1.10579L3.59733 1.18074C4.97532 1.86974 5.95455 3.15299 6.26045 4.65386L6.30312 4.89259L6.31822 4.99522L18.5608 4.99592C18.6925 4.99592 18.8239 5.00458 18.9543 5.02183L19.1489 5.05413C20.7156 5.36733 21.7514 6.84803 21.5322 8.41017L21.5026 8.58402L20.3023 14.5883C20.0336 15.9323 18.8916 16.9154 17.5381 16.995L17.3605 17.0002H8.71606C7.29457 17.0002 6.07719 16.0046 5.78287 14.6301L5.75094 14.4564L4.32637 5.1967C4.18828 4.29909 3.65187 3.51603 2.87337 3.06181L2.7029 2.96959L2.55301 2.89465C2.05903 2.64766 1.8588 2.04698 2.10579 1.55301ZM7.72768 14.1523C7.79696 14.6026 8.15995 14.9441 8.60359 14.9939L8.71606 15.0002H17.3605C17.7975 15.0002 18.1788 14.7175 18.3112 14.3103L18.3411 14.1963L19.5414 8.19195C19.6497 7.65038 19.2984 7.12359 18.7569 7.01532L18.6593 7.00078L18.5608 6.99592L6.62622 6.99522L7.72768 14.1523Z" fill="white"/>
<g opacity="0.5">
<path fill-rule="evenodd" clip-rule="evenodd" d="M12 9C11.4477 9 11 9.44772 11 10C11 10.5523 11.4477 11 12 11H16C16.5523 11 17 10.5523 17 10C17 9.44772 16.5523 9 16 9H12ZM9.5 19C10.3275 19 11 19.673 11 20.501C11 21.329 10.3275 22 9.5 22C8.67255 22 8 21.329 8 20.501C8 19.673 8.67255 19 9.5 19ZM16.5 19C17.3275 19 18 19.673 18 20.501C18 21.329 17.3275 22 16.5 22C15.6725 22 15 21.329 15 20.501C15 19.673 15.6725 19 16.5 19Z" fill="white"/>
</g>
</svg>
