<svg width="24" height="25" viewBox="0 0 24 25" fill="none" xmlns="http://www.w3.org/2000/svg">
<path fill-rule="evenodd" clip-rule="evenodd" d="M2.10555 1.98207C2.33489 1.52835 2.8692 1.32517 3.33987 1.49407L3.44719 1.5397L3.59708 1.61384C4.97508 2.29537 5.95431 3.56471 6.26021 5.0493L6.30287 5.28545L6.31798 5.38696L18.5606 5.38766C18.6922 5.38766 18.8237 5.39623 18.954 5.41329L19.1487 5.44523C20.7154 5.75504 21.7512 7.21969 21.5319 8.76489L21.5024 8.93686L20.302 14.8761C20.0333 16.2055 18.8913 17.1779 17.5379 17.2567L17.3602 17.2618H8.71581C7.29433 17.2618 6.07695 16.277 5.78263 14.9174L5.7507 14.7456L4.32613 5.58626C4.18804 4.69839 3.65163 3.92381 2.87313 3.47452L2.70266 3.3833L2.55276 3.30916C2.05878 3.06485 1.85856 2.47069 2.10555 1.98207ZM7.72744 14.4447C7.79672 14.8902 8.1597 15.2279 8.60335 15.2773L8.71581 15.2835H17.3602C17.7972 15.2835 18.1785 15.0038 18.311 14.601L18.3408 14.4882L19.5412 8.54904C19.6494 8.01334 19.2982 7.49226 18.7566 7.38517L18.6591 7.37078L18.5606 7.36597L6.62597 7.36528L7.72744 14.4447Z" fill="#081420"/>
<g opacity="0.5">
<path fill-rule="evenodd" clip-rule="evenodd" d="M11.9892 9.34863C11.4429 9.34863 11 9.79149 11 10.3378C11 10.8841 11.4429 11.327 11.9892 11.327H16.0108C16.5571 11.327 17 10.8841 17 10.3378C17 9.79149 16.5571 9.34863 16.0108 9.34863H11.9892ZM9.5 19.2402C10.3275 19.2402 11 19.9059 11 20.7249C11 21.5439 10.3275 22.2077 9.5 22.2077C8.67255 22.2077 8 21.5439 8 20.7249C8 19.9059 8.67255 19.2402 9.5 19.2402ZM16.5 19.2402C17.3275 19.2402 18 19.9059 18 20.7249C18 21.5439 17.3275 22.2077 16.5 22.2077C15.6725 22.2077 15 21.5439 15 20.7249C15 19.9059 15.6725 19.2402 16.5 19.2402Z" fill="#081420"/>
</g>
</svg>
