<svg width="24" height="24" viewBox="0 0 24 24" fill="none" xmlns="http://www.w3.org/2000/svg">
<path fill-rule="evenodd" clip-rule="evenodd" d="M6.67909 2.00503L6.63995 2.00245C5.21715 1.93667 3.32854 3.53762 2.60827 4.73252C1.81805 5.80288 1.80319 7.23088 2.47992 8.85088L2.58661 9.09531C4.30413 13.3032 10.7124 19.6692 14.9352 21.4261L15.172 21.5316C16.6655 22.1668 18.0377 22.1749 19.1601 21.4657L19.2882 21.3792L19.2499 21.4026C20.3749 20.7582 22.0502 18.8255 21.9988 17.3708C21.9474 16.7364 21.6618 16.2374 21.2253 15.7907C21.0823 15.6443 20.8919 15.4692 20.6721 15.2798L20.3225 14.987C20.2613 14.937 20.1988 14.8865 20.1353 14.8359L19.7447 14.5312C19.6784 14.4806 19.6116 14.4303 19.5446 14.3804L19.1433 14.0883C18.4788 13.6168 17.8545 13.2366 17.551 13.173C16.857 13.0291 16.393 13.1556 15.6887 13.5411L15.4319 13.6862C15.0368 13.9128 14.9425 13.9387 14.8266 13.8966C12.5926 12.9842 11.016 11.4081 10.0881 9.13758C10.0743 9.09833 10.0739 9.05503 10.1055 8.97194L10.1598 8.85084L10.2519 8.67782L10.347 8.51082C10.8192 7.69013 10.9841 7.20691 10.8275 6.45154C10.7829 6.23843 10.5835 5.86884 10.3062 5.43846L10.0513 5.0569C10.0062 4.99157 9.96004 4.92556 9.91292 4.85915L9.62103 4.45804C9.57115 4.39112 9.5208 4.32436 9.47021 4.25803L9.1656 3.8675C9.11494 3.80403 9.0645 3.74154 9.01449 3.68032L8.72141 3.3305L8.44951 3.02456C8.3636 2.93138 8.28301 2.84775 8.20955 2.77589C7.76327 2.33993 7.26485 2.0552 6.67909 2.00503ZM6.48505 4.00398L6.52518 4.00118L6.50843 3.99774C6.55663 4.00186 6.66699 4.06491 6.81151 4.20609L6.97024 4.37258L7.16319 4.59255L7.38076 4.85298L7.73233 5.29098L8.08537 5.74674L8.50245 6.30605L8.66643 6.53566L8.78792 6.71454C8.83644 6.78913 8.86543 6.83981 8.86949 6.85925C8.88412 6.92977 8.87509 7.00155 8.81388 7.13745L8.73422 7.29706L8.57968 7.57208C8.08256 8.43833 7.92116 9.02459 8.22205 9.85614C9.36789 12.6621 11.3393 14.6329 14.1076 15.7625C14.9131 16.0556 15.4768 15.9377 16.2457 15.5222L16.7239 15.2549C16.9564 15.1324 17.0502 15.1117 17.1429 15.1309L17.1723 15.1431L17.2872 15.2124L17.4659 15.334L17.8253 15.5929L18.4061 16.0311L19.0075 16.5048L19.409 16.8372L19.6286 17.0299C19.6936 17.0889 19.7497 17.1422 19.7946 17.1882C19.9359 17.3328 19.9991 17.4433 20.0029 17.4886C20.0172 17.9258 18.9336 19.2012 18.3528 19.6052L18.1705 19.7219C17.6541 20.0918 16.9405 20.1085 15.944 19.6863L15.7409 19.596C13.975 18.8609 11.7176 17.1605 9.65883 15.1753L9.10279 14.6273C7.08585 12.596 5.3303 10.3417 4.52627 8.54517L4.42259 8.30308C3.92861 7.2157 3.88648 6.4675 4.20291 5.94243L4.27095 5.84035C4.44135 5.5656 4.89511 5.06357 5.34639 4.68103C5.82458 4.27567 6.2559 4.03689 6.48505 4.00398Z" fill="#F42B55"/>
<g opacity="0.5">
<path fill-rule="evenodd" clip-rule="evenodd" d="M14.1107 1.0062L13.994 1C13.4933 1.00246 13.063 1.3799 13.0063 1.88959C12.9453 2.4385 13.3408 2.93294 13.8897 2.99395C17.6309 3.40984 20.5858 6.36494 21.0064 10.1116C21.068 10.6605 21.5629 11.0554 22.1117 10.9938C22.6606 10.9322 23.0556 10.4374 22.9939 9.88852C22.4691 5.21361 18.7812 1.52539 14.1107 1.0062ZM14.1915 6.01855C13.6494 5.91289 13.1243 6.26668 13.0187 6.80876C12.913 7.35084 13.2668 7.87594 13.8089 7.9816C14.9271 8.19957 15.8007 9.07312 16.0187 10.1914C16.1243 10.7335 16.6494 11.0873 17.1915 10.9816C17.7336 10.8759 18.0874 10.3508 17.9817 9.80876C17.6079 7.89101 16.1093 6.39235 14.1915 6.01855Z" fill="#F42B55"/>
</g>
</svg>
