<svg width="23" height="25" viewBox="0 0 23 25" fill="none" xmlns="http://www.w3.org/2000/svg">
<path fill-rule="evenodd" clip-rule="evenodd" d="M5.94935 3.6626H8.18377C9.62337 3.6626 10.7903 4.88593 10.7903 6.39505V8.73735C10.7903 10.2459 9.62319 11.4698 8.18377 11.4698H5.94935C4.50994 11.4698 3.34277 10.2459 3.34277 8.73735V6.39505C3.34277 4.88593 4.50975 3.6626 5.94935 3.6626ZM8.18377 5.6144H5.94935C5.53805 5.6144 5.20467 5.96388 5.20467 6.39504V8.73735C5.20467 9.1681 5.53835 9.51801 5.94935 9.51801H8.18377C8.59477 9.51801 8.92845 9.16811 8.92845 8.73735V6.39504C8.92845 5.96388 8.59507 5.6144 8.18377 5.6144ZM5.94935 13.4216H8.18377C9.62355 13.4216 10.7903 14.6451 10.7903 16.1549V18.4964C10.7903 20.0055 9.62336 21.2288 8.18377 21.2288H5.94935C4.50977 21.2288 3.34277 20.0055 3.34277 18.4964V16.1549C3.34277 14.6451 4.50957 13.4216 5.94935 13.4216ZM8.18377 15.3734H5.94935C5.538 15.3734 5.20467 15.723 5.20467 16.1549V18.4964C5.20467 18.9276 5.53805 19.277 5.94935 19.277H8.18377C8.59507 19.277 8.92845 18.9276 8.92845 18.4964V16.1549C8.92845 15.723 8.59513 15.3734 8.18377 15.3734ZM17.4939 13.4216H15.2588C13.819 13.4216 12.6522 14.6451 12.6522 16.1549V18.4964C12.6522 20.0055 13.8192 21.2288 15.2588 21.2288H17.4939C18.933 21.2288 20.0998 20.0053 20.0998 18.4964V16.1549C20.0998 14.6453 18.9332 13.4216 17.4939 13.4216ZM15.2588 15.3734H17.4939C17.9046 15.3734 18.2379 15.723 18.2379 16.1549V18.4964C18.2379 18.9275 17.9046 19.277 17.4939 19.277H15.2588C14.8475 19.277 14.5141 18.9275 14.5141 18.4964V16.1549C14.5141 15.723 14.8475 15.3734 15.2588 15.3734Z" fill="white"/>
<g opacity="0.5">
<path fill-rule="evenodd" clip-rule="evenodd" d="M17.494 3.6626H15.2589C13.8193 3.6626 12.6523 4.88594 12.6523 6.39505V8.73735C12.6523 10.2459 13.8195 11.4698 15.2589 11.4698H17.494C18.9329 11.4698 20.0999 10.2457 20.0999 8.73735V6.39505C20.0999 4.88611 18.9331 3.6626 17.494 3.6626ZM15.2589 5.6144H17.494C17.9047 5.6144 18.238 5.96394 18.238 6.39504V8.73735C18.238 9.16805 17.9044 9.51801 17.494 9.51801H15.2589C14.8479 9.51801 14.5142 9.1681 14.5142 8.73735V6.39504C14.5142 5.96389 14.8476 5.6144 15.2589 5.6144Z" fill="white"/>
</g>
</svg>
