<svg width="24" height="24" viewBox="0 0 24 24" fill="none" xmlns="http://www.w3.org/2000/svg">
<path fill-rule="evenodd" clip-rule="evenodd" d="M9.73059 2.91686L9.03214 3.61013C8.81011 3.82864 8.50594 3.95293 8.1898 3.95293H7.18861C5.42182 3.95293 3.9887 5.37384 3.9887 7.12555V8.11598C3.9887 8.42997 3.86325 8.73088 3.63886 8.95489L2.93303 9.65539C1.68436 10.8987 1.69005 12.9075 2.94379 14.1432L3.64087 14.8351C3.86291 15.0557 3.9887 15.3574 3.9887 15.6701V16.6624C3.9887 18.4141 5.42177 19.8341 7.18861 19.8341H8.1898C8.5051 19.8341 8.80951 19.9587 9.03516 20.1808L9.74095 20.8804C10.9967 22.1181 13.0235 22.1124 14.2692 20.8694L14.9668 20.1788C15.1901 19.9586 15.4941 19.8341 15.8102 19.8341H16.8104C18.578 19.8341 20.0113 18.4143 20.0113 16.6624V15.6701C20.0113 15.3566 20.1367 15.0551 20.3585 14.8347L21.0669 14.1325C22.3152 12.8883 22.3091 10.881 21.0566 9.64513L20.3576 8.95237C20.1363 8.73148 20.0113 8.4308 20.0113 8.11598V7.12555C20.0113 5.37363 18.5779 3.95293 16.8104 3.95293H15.8102C15.4932 3.95293 15.1895 3.82881 14.9656 3.60798L14.2564 2.90597C13.004 1.67017 10.9775 1.67537 9.73059 2.91686ZM12.7478 4.22438L12.8865 4.34918L13.5531 5.01131C14.1537 5.60377 14.9648 5.93523 15.8102 5.93523H16.8104C17.4733 5.93523 18.0113 6.46841 18.0113 7.12555V8.11598C18.0113 8.95418 18.3452 9.75689 18.9409 10.3516L19.644 11.0484C20.1159 11.514 20.1182 12.2669 19.6439 12.7395L18.9434 13.4339C18.3462 14.0272 18.0113 14.8324 18.0113 15.6701V16.6624C18.0113 17.3192 17.4737 17.8518 16.8104 17.8518H15.8102C14.965 17.8518 14.1538 18.184 13.5548 18.775L12.853 19.4696C12.4147 19.907 11.7236 19.938 11.2509 19.5633L11.1508 19.4744L10.4469 18.7767C9.84453 18.1838 9.03374 17.8518 8.1898 17.8518H7.18861C6.52621 17.8518 5.9887 17.3192 5.9887 16.6624V15.6701C5.9887 14.8327 5.653 14.0274 5.05643 13.4347L4.35651 12.74C3.91518 12.305 3.8839 11.6199 4.26166 11.1522L4.35602 11.0484L5.05606 10.3536C5.65403 9.7567 5.9887 8.95391 5.9887 8.11598V7.12555C5.9887 6.46849 6.52654 5.93523 7.18861 5.93523H8.1898C9.03401 5.93523 9.84472 5.60394 10.4444 5.0138L11.1469 4.31645C11.5846 3.88071 12.2759 3.84996 12.7478 4.22438Z" fill="#F42B55"/>
<g opacity="0.5">
<path fill-rule="evenodd" clip-rule="evenodd" d="M14.4454 9.08698C14.9049 8.78334 15.5258 8.90641 15.8322 9.36187C16.1166 9.7848 16.0299 10.3456 15.6481 10.6667L15.5548 10.7364L9.55481 14.701C9.09528 15.0046 8.47441 14.8815 8.16806 14.4261C7.88359 14.0031 7.97033 13.4423 8.3521 13.1212L8.44541 13.0516L14.4454 9.08698ZM14.0001 14.8674C13.7334 14.8674 13.4801 14.761 13.2934 14.5747C13.2001 14.4816 13.1334 14.3619 13.0801 14.2421C13.0268 14.1224 13.0001 14.004 13.0001 13.8696C13.0001 13.7366 13.0268 13.6035 13.0801 13.4838C13.1334 13.3641 13.2001 13.2576 13.2934 13.1645C13.6668 12.792 14.3334 12.792 14.7068 13.1645C14.8001 13.2576 14.8801 13.3641 14.9334 13.4838C14.9734 13.6035 15.0001 13.7366 15.0001 13.8696C15.0001 14.004 14.9734 14.1224 14.9334 14.2421C14.8801 14.3619 14.8001 14.4816 14.7068 14.5747C14.5201 14.761 14.2668 14.8674 14.0001 14.8674ZM9.62679 10.8217C9.74679 10.8749 9.8668 10.9028 10.0001 10.9028C10.1335 10.9028 10.2668 10.8749 10.3868 10.8217C10.5068 10.7685 10.6135 10.7034 10.7068 10.6102C10.8001 10.5039 10.8801 10.3975 10.9334 10.2778C10.9868 10.1568 11.0001 10.0385 11.0001 9.9055C11.0001 9.63956 10.8934 9.38558 10.7068 9.20075C10.3335 8.8271 9.68012 8.8271 9.29345 9.20075C9.20011 9.28053 9.13344 9.40021 9.08011 9.51988C9.02677 9.63956 9.00011 9.7712 9.00011 9.9055C9.00011 10.0385 9.02677 10.1568 9.08011 10.2778C9.13344 10.3975 9.20011 10.5039 9.29345 10.6102C9.38678 10.7034 9.50679 10.7685 9.62679 10.8217Z" fill="#F42B55"/>
</g>
</svg>
