<svg width="14" height="15" viewBox="0 0 14 15" fill="none" xmlns="http://www.w3.org/2000/svg">
<path fill-rule="evenodd" clip-rule="evenodd" d="M11.5138 0.421265C12.9907 -0.194134 14.4725 1.28757 13.8571 2.76453L9.61129 12.9544C8.78096 14.9472 5.8603 14.6103 5.50538 12.4808L4.97568 9.30264L1.7975 8.77294C-0.331998 8.41802 -0.668833 5.49736 1.32397 4.66702L11.5138 0.421265ZM12.5338 2.21317C12.6569 1.91778 12.3605 1.62144 12.0651 1.74452L1.87532 5.99028C1.21106 6.26706 1.32334 7.24061 2.03317 7.35892L5.21135 7.88862C5.81555 7.98932 6.28901 8.46277 6.3897 9.06697L6.9194 12.2452C7.03771 12.955 8.01126 13.0673 8.28804 12.403L12.5338 2.21317Z" fill="#AAAFBE"/>
</svg>
