<svg width="24" height="24" viewBox="0 0 24 24" fill="none" xmlns="http://www.w3.org/2000/svg">
<path fill-rule="evenodd" clip-rule="evenodd" d="M6.56766 3.29829C2.83092 4.42802 1.14902 8.2937 2.40746 11.9646C3.03617 13.6668 4.05274 15.1875 5.3861 16.4331C5.7576 16.7719 6.20287 17.1429 6.72285 17.547L7.26776 17.9621C7.36274 18.0332 7.4598 18.1052 7.55895 18.1781L8.17895 18.6267L8.84925 19.098L9.57007 19.5921L10.3416 20.1093C11.3466 20.776 12.6532 20.7761 13.6583 20.1095L14.0456 19.8513C14.3033 19.6786 14.5524 19.5099 14.793 19.345L15.4895 18.8619C15.6013 18.7833 15.7111 18.7057 15.8187 18.629L16.4389 18.1804C16.5381 18.1075 16.6351 18.0356 16.7301 17.9646L17.2745 17.5501L17.7686 17.1582C18.0812 16.9044 18.3603 16.6655 18.6061 16.4413C19.9483 15.1874 20.9649 13.6667 21.5857 11.987C22.8514 8.29558 21.1627 4.42834 17.4251 3.29837L17.1574 3.22349C15.4557 2.78396 13.6479 3.00232 12.1216 3.81871L11.996 3.888L11.8716 3.81853C10.2649 2.958 8.34546 2.76129 6.56766 3.29829ZM11.4205 5.88563C11.7656 6.12861 12.2261 6.12879 12.5714 5.88606C13.7954 5.02557 15.3888 4.7737 16.8473 5.21307C19.442 5.99753 20.6089 8.66977 19.7017 11.3161C19.1976 12.6794 18.3565 13.9376 17.2496 14.9717C16.9171 15.2749 16.5061 15.6161 16.0176 15.9943L15.5034 16.3848C15.4133 16.4519 15.3212 16.5201 15.2269 16.5892L14.6356 17.0163L13.9932 17.4673L13.2999 17.9422L12.5509 18.4441C12.2178 18.665 11.7823 18.6649 11.4473 18.4427L11.0689 18.1904L10.35 17.7035L9.68184 17.2401L9.06438 16.8005C8.86703 16.658 8.67817 16.5194 8.4978 16.3848L7.98221 15.9931C7.65551 15.74 7.36289 15.5031 7.10449 15.2823L6.74259 14.9635C5.64456 13.9376 4.80352 12.6795 4.29142 11.2937C3.39121 8.66689 4.55292 5.99681 7.14621 5.21279C8.6039 4.77247 10.1974 5.02436 11.4205 5.88563Z" fill="#081420"/>
<g opacity="0.5">
<path fill-rule="evenodd" clip-rule="evenodd" d="M14.0305 7.75514C14.1659 7.2197 14.7096 6.89538 15.2451 7.03074C16.7385 7.40827 17.8483 8.5181 17.9944 9.89469C18.0527 10.4439 17.6547 10.9364 17.1055 10.9947C16.5956 11.0488 16.1345 10.7095 16.0246 10.221L16.0056 10.1058C15.9544 9.62397 15.4847 9.15424 14.7549 8.96974C14.2195 8.83438 13.8951 8.29058 14.0305 7.75514Z" fill="#081420"/>
</g>
</svg>
