<svg width="20" height="20" viewBox="0 0 20 20" fill="none" xmlns="http://www.w3.org/2000/svg">
<path d="M12.4998 18.9582H7.49984C2.97484 18.9582 1.0415 17.0248 1.0415 12.4998V7.49984C1.0415 2.97484 2.97484 1.0415 7.49984 1.0415H12.4998C17.0248 1.0415 18.9582 2.97484 18.9582 7.49984V12.4998C18.9582 17.0248 17.0248 18.9582 12.4998 18.9582ZM7.49984 2.2915C3.65817 2.2915 2.2915 3.65817 2.2915 7.49984V12.4998C2.2915 16.3415 3.65817 17.7082 7.49984 17.7082H12.4998C16.3415 17.7082 17.7082 16.3415 17.7082 12.4998V7.49984C17.7082 3.65817 16.3415 2.2915 12.4998 2.2915H7.49984Z" fill="#081420"/>
<path d="M4.99987 15.6249C4.84154 15.6249 4.6832 15.5665 4.5582 15.4415C4.31654 15.1999 4.31654 14.7999 4.5582 14.5582L14.5582 4.5582C14.7999 4.31654 15.1999 4.31654 15.4415 4.5582C15.6832 4.79987 15.6832 5.19987 15.4415 5.44154L5.44154 15.4415C5.31654 15.5665 5.1582 15.6249 4.99987 15.6249Z" fill="#081420"/>
<path d="M14.9998 8.95833C14.6582 8.95833 14.3748 8.675 14.3748 8.33333V5.625H11.6665C11.3248 5.625 11.0415 5.34167 11.0415 5C11.0415 4.65833 11.3248 4.375 11.6665 4.375H14.9998C15.3415 4.375 15.6248 4.65833 15.6248 5V8.33333C15.6248 8.675 15.3415 8.95833 14.9998 8.95833Z" fill="#081420"/>
<path d="M8.33333 15.6248H5C4.65833 15.6248 4.375 15.3415 4.375 14.9998V11.6665C4.375 11.3248 4.65833 11.0415 5 11.0415C5.34167 11.0415 5.625 11.3248 5.625 11.6665V14.3748H8.33333C8.675 14.3748 8.95833 14.6582 8.95833 14.9998C8.95833 15.3415 8.675 15.6248 8.33333 15.6248Z" fill="#081420"/>
</svg>
