<svg width="20" height="20" viewBox="0 0 20 20" fill="none" xmlns="http://www.w3.org/2000/svg">
<path d="M7.49984 18.3332H12.4998C16.6665 18.3332 18.3332 16.6665 18.3332 12.4998V7.49984C18.3332 3.33317 16.6665 1.6665 12.4998 1.6665H7.49984C3.33317 1.6665 1.6665 3.33317 1.6665 7.49984V12.4998C1.6665 16.6665 3.33317 18.3332 7.49984 18.3332Z" fill="#F2F3F5" stroke="#081420" stroke-width="1.5" stroke-linecap="round" stroke-linejoin="round"/>
<path d="M7.9999 7.4751L5.9249 9.5501C5.68324 9.79176 5.68324 10.2001 5.9249 10.4418L7.9999 12.5168" fill="#F2F3F5"/>
<path d="M7.9999 7.4751L5.9249 9.5501C5.68324 9.79176 5.68324 10.2001 5.9249 10.4418L7.9999 12.5168" stroke="#081420" stroke-width="1.5" stroke-miterlimit="10" stroke-linecap="round" stroke-linejoin="round"/>
<path d="M12 7.4751L14.075 9.5501C14.3167 9.79176 14.3167 10.2001 14.075 10.4418L12 12.5168" fill="#F2F3F5"/>
<path d="M12 7.4751L14.075 9.5501C14.3167 9.79176 14.3167 10.2001 14.075 10.4418L12 12.5168" stroke="#081420" stroke-width="1.5" stroke-miterlimit="10" stroke-linecap="round" stroke-linejoin="round"/>
</svg>
