<svg width="16" height="16" viewBox="0 0 16 16" fill="none" xmlns="http://www.w3.org/2000/svg">
<path d="M14.6667 11.6665H10" stroke="#081420" stroke-width="1.5" stroke-miterlimit="10" stroke-linecap="round" stroke-linejoin="round"/>
<path d="M3.3335 11.6665H1.3335" stroke="#081420" stroke-width="1.5" stroke-miterlimit="10" stroke-linecap="round" stroke-linejoin="round"/>
<path d="M14.6665 4.3335H12.6665" stroke="#081420" stroke-width="1.5" stroke-miterlimit="10" stroke-linecap="round" stroke-linejoin="round"/>
<path d="M6.00016 4.3335H1.3335" stroke="#081420" stroke-width="1.5" stroke-miterlimit="10" stroke-linecap="round" stroke-linejoin="round"/>
<path d="M4.66683 9.6665H8.66683C9.40016 9.6665 10.0002 9.99984 10.0002 10.9998V12.3332C10.0002 13.3332 9.40016 13.6665 8.66683 13.6665H4.66683C3.9335 13.6665 3.3335 13.3332 3.3335 12.3332V10.9998C3.3335 9.99984 3.9335 9.6665 4.66683 9.6665Z" stroke="#081420" stroke-width="1.5" stroke-miterlimit="10" stroke-linecap="round" stroke-linejoin="round"/>
<path d="M7.33333 2.3335H11.3333C12.0667 2.3335 12.6667 2.66683 12.6667 3.66683V5.00016C12.6667 6.00016 12.0667 6.3335 11.3333 6.3335H7.33333C6.6 6.3335 6 6.00016 6 5.00016V3.66683C6 2.66683 6.6 2.3335 7.33333 2.3335Z" stroke="#081420" stroke-width="1.5" stroke-miterlimit="10" stroke-linecap="round" stroke-linejoin="round"/>
</svg>
