<svg width="24" height="24" viewBox="0 0 24 24" fill="none" xmlns="http://www.w3.org/2000/svg">
<path fill-rule="evenodd" clip-rule="evenodd" d="M12.0011 13.7256C11.6555 13.7253 11.3185 13.7294 10.9903 13.7382L10.3457 13.7618C10.0294 13.7767 9.72207 13.7962 9.42397 13.8205L8.84014 13.8753C5.12621 14.2724 3 15.4739 3 17.6446C3 19.7213 4.83487 20.8986 8.22291 21.3512L8.78589 21.4183L9.37584 21.4728C9.57695 21.4889 9.78251 21.5029 9.99248 21.515L10.6355 21.5449C10.7449 21.5489 10.8554 21.5524 10.9669 21.5553L11.6491 21.5673L11.9999 21.5688C12.236 21.5689 12.4678 21.5669 12.6953 21.5631L13.3647 21.5454C13.4741 21.5415 13.5824 21.5371 13.6896 21.5321L14.3196 21.4964C14.5252 21.4824 14.7264 21.4664 14.9231 21.4483L15.4996 21.3878C19.0656 20.9648 20.9994 19.7818 20.9997 17.6474C21.0001 15.3104 18.5454 14.1025 14.2811 13.8015L13.6596 13.7647C13.2372 13.7442 12.7987 13.7318 12.3446 13.7274L12.0011 13.7256ZM11.9991 15.6864C16.6025 15.691 18.9999 16.5446 18.9997 17.647C18.9996 18.274 18.3164 18.8047 16.9128 19.1553L16.5121 19.2464C16.0237 19.3473 15.462 19.4292 14.8259 19.4894L14.2624 19.5356C14.1654 19.5424 14.0669 19.5487 13.9669 19.5546L13.3483 19.5841C13.2421 19.5881 13.1344 19.5915 13.0252 19.5945L12.3512 19.6065L12.0003 19.608C11.7633 19.608 11.5326 19.6059 11.308 19.6018L10.6527 19.5835C10.5466 19.5795 10.442 19.575 10.3389 19.5701L9.73885 19.5346L9.17537 19.4882C6.35829 19.2203 5 18.5267 5 17.6446C5 16.7385 6.62025 15.998 9.73875 15.7638L10.341 15.7259C10.8575 15.6994 11.4103 15.6858 11.9991 15.6864Z" fill="#081420"/>
<g opacity="0.5">
<path fill-rule="evenodd" clip-rule="evenodd" d="M12 1.96094C9.23858 1.96094 7 4.15565 7 6.86296C7 9.57028 9.23858 11.765 12 11.765C14.7614 11.765 17 9.57028 17 6.86296C17 4.15565 14.7614 1.96094 12 1.96094ZM12 3.92175C13.6569 3.92175 15 5.23857 15 6.86296C15 8.48735 13.6569 9.80418 12 9.80418C10.3431 9.80418 9 8.48735 9 6.86296C9 5.23857 10.3431 3.92175 12 3.92175Z" fill="#081420"/>
</g>
</svg>
