<svg width="24" height="25" viewBox="0 0 24 25" fill="none" xmlns="http://www.w3.org/2000/svg">
<path fill-rule="evenodd" clip-rule="evenodd" d="M11 3.63867C6.58172 3.63867 3 7.13408 3 11.4459C3 15.7577 6.58172 19.2531 11 19.2531C15.4183 19.2531 19 15.7577 19 11.4459C19 7.13408 15.4183 3.63867 11 3.63867ZM11 5.59048C14.3137 5.59048 17 8.21203 17 11.4459C17 14.6797 14.3137 17.3013 11 17.3013C7.68629 17.3013 5 14.6797 5 11.4459C5 8.21203 7.68629 5.59048 11 5.59048Z" fill="#AAAFBE"/>
<g opacity="0.5">
<path fill-rule="evenodd" clip-rule="evenodd" d="M15.2926 15.6392C15.6529 15.2872 16.2201 15.2599 16.6125 15.5574L16.7068 15.6385L20.7068 19.5386C21.0975 19.9195 21.0978 20.5375 20.7074 20.9187C20.3471 21.2707 19.7799 21.298 19.3875 21.0005L19.2932 20.9194L15.2932 17.0193C14.9025 16.6384 14.9022 16.0205 15.2926 15.6392Z" fill="#AAAFBE"/>
</g>
</svg>
