<svg width="24" height="24" viewBox="0 0 24 24" fill="none" xmlns="http://www.w3.org/2000/svg">
<path fill-rule="evenodd" clip-rule="evenodd" d="M11 2.95593C6.58172 2.95593 3 6.48498 3 10.8383C3 15.1916 6.58172 18.7206 11 18.7206C15.4183 18.7206 19 15.1916 19 10.8383C19 6.48498 15.4183 2.95593 11 2.95593ZM11 4.92652C14.3137 4.92652 17 7.57331 17 10.8383C17 14.1033 14.3137 16.7501 11 16.7501C7.68629 16.7501 5 14.1033 5 10.8383C5 7.57331 7.68629 4.92652 11 4.92652Z" fill="white"/>
<g opacity="0.5">
<path fill-rule="evenodd" clip-rule="evenodd" d="M15.2926 15.0719C15.6529 14.7165 16.2201 14.6889 16.6125 14.9893L16.7068 15.0712L20.7068 19.0088C21.0975 19.3934 21.0978 20.0173 20.7074 20.4022C20.3471 20.7576 19.7799 20.7852 19.3875 20.4848L19.2932 20.4029L15.2932 16.4653C14.9025 16.0807 14.9022 15.4568 15.2926 15.0719Z" fill="white"/>
</g>
</svg>
