<svg width="20" height="20" viewBox="0 0 20 20" fill="none" xmlns="http://www.w3.org/2000/svg">
<path d="M10 7.08333V2.5" stroke="#797C86" stroke-width="1.5" stroke-linecap="round" stroke-linejoin="round"/>
<path d="M10 17.4998V12.9165" stroke="#797C86" stroke-width="1.5" stroke-linecap="round" stroke-linejoin="round"/>
<path d="M8.3335 3.3335H11.6668" stroke="#797C86" stroke-width="1.5" stroke-linecap="round" stroke-linejoin="round"/>
<path d="M8.3335 16.6665H11.6668" stroke="#797C86" stroke-width="1.5" stroke-linecap="round" stroke-linejoin="round"/>
<path d="M7.47497 8.54167L3.5083 6.25" stroke="#797C86" stroke-width="1.5" stroke-linecap="round" stroke-linejoin="round"/>
<path d="M16.4916 13.7502L12.5249 11.4585" stroke="#797C86" stroke-width="1.5" stroke-linecap="round" stroke-linejoin="round"/>
<path d="M3.5083 8.52493L5.17497 5.6416" stroke="#797C86" stroke-width="1.5" stroke-linecap="round" stroke-linejoin="round"/>
<path d="M14.8252 14.3584L16.4919 11.4751" stroke="#797C86" stroke-width="1.5" stroke-linecap="round" stroke-linejoin="round"/>
<path d="M12.9168 10.0002C12.9168 10.5335 12.7752 11.0252 12.5252 11.4585C12.0168 12.3335 11.0752 12.9168 10.0002 12.9168C8.92516 12.9168 7.9835 12.3335 7.47516 11.4585C7.22516 11.0252 7.0835 10.5335 7.0835 10.0002C7.0835 9.46683 7.22516 8.97516 7.47516 8.54183C7.9835 7.66683 8.92516 7.0835 10.0002 7.0835C11.0752 7.0835 12.0168 7.66683 12.5252 8.54183C12.7752 8.97516 12.9168 9.46683 12.9168 10.0002Z" stroke="#797C86" stroke-width="1.5" stroke-linecap="round" stroke-linejoin="round"/>
<path d="M16.4916 6.25L12.5249 8.54167" stroke="#797C86" stroke-width="1.5" stroke-linecap="round" stroke-linejoin="round"/>
<path d="M7.47497 11.4585L3.5083 13.7502" stroke="#797C86" stroke-width="1.5" stroke-linecap="round" stroke-linejoin="round"/>
<path d="M16.4919 8.52493L14.8252 5.6416" stroke="#797C86" stroke-width="1.5" stroke-linecap="round" stroke-linejoin="round"/>
<path d="M5.00016 14.5498L3.3335 11.6665" stroke="#797C86" stroke-width="1.5" stroke-linecap="round" stroke-linejoin="round"/>
</svg>
