<svg width="24" height="20" viewBox="0 0 24 20" fill="none" xmlns="http://www.w3.org/2000/svg">
<path fill-rule="evenodd" clip-rule="evenodd" d="M1.64951 8.5638C8.09224 5.75669 12.3881 3.9059 14.537 3.01142C20.6747 0.459883 21.9567 0.0167643 22.7811 0.000276131C23.0868 -0.00566646 23.3867 0.0844393 23.6385 0.257903C23.8152 0.410259 23.9278 0.623738 23.9538 0.855598C23.9982 1.14395 24.0106 1.43632 23.9909 1.72741C23.6591 5.23113 22.2184 13.6998 21.4868 17.6137C21.1776 19.2625 20.5676 19.8252 19.9761 19.8808C18.6941 19.9983 17.7089 19.0317 16.4723 18.2176C14.5267 16.9418 13.4282 16.1566 11.5403 14.9035C9.3577 13.4608 10.7736 12.6755 12.0164 11.3853C12.3421 11.0473 17.9934 5.90302 18.1047 5.43724C18.1193 5.36845 18.1176 5.29719 18.0997 5.22917C18.0818 5.16116 18.0482 5.09829 18.0016 5.04564C17.934 5.00336 17.8574 4.97743 17.7779 4.96992C17.6985 4.96241 17.6184 4.97352 17.5441 5.00236C17.3503 5.04496 14.2437 7.09841 8.22415 11.1627C7.34204 11.7687 6.54305 12.0641 5.82719 12.049C5.03782 12.0304 3.5209 11.6017 2.39147 11.2246C1.00853 10.7753 -0.0817423 10.5382 0.00482031 9.78185C0.0556587 9.38614 0.603885 8.98012 1.64951 8.5638Z" fill="#AAAFBE"/>
</svg>
