<svg width="24" height="24" viewBox="0 0 24 24" fill="none" xmlns="http://www.w3.org/2000/svg">
<path d="M0 24L1.68905 17.8345C0.382337 15.5655 -0.139362 12.9288 0.204829 10.3332C0.549021 7.73756 1.73987 5.32797 3.59277 3.47798C5.44567 1.62799 7.85713 0.440922 10.4533 0.100812C13.0495 -0.239298 15.6853 0.286544 17.9522 1.59682C20.2191 2.9071 21.9905 4.92862 22.9917 7.34799C23.9929 9.76736 24.1679 12.4494 23.4898 14.9784C22.8116 17.5074 21.3181 19.7421 19.2408 21.336C17.1635 22.9298 14.6183 23.7939 12 23.7942C10.0138 23.793 8.05958 23.2947 6.31544 22.3445L0 24ZM6.59955 20.1969L6.96198 20.4206C8.48597 21.3231 10.2244 21.7998 11.9955 21.8009C14.1889 21.8013 16.3201 21.0728 18.0543 19.73C19.7885 18.3871 21.0272 16.506 21.5757 14.3823C22.1243 12.2587 21.9515 10.013 21.0846 7.99827C20.2177 5.98354 18.7058 4.31403 16.7866 3.25221C14.8675 2.19039 12.6498 1.79647 10.4824 2.13238C8.31494 2.4683 6.32059 3.515 4.81286 5.10793C3.30513 6.70086 2.36952 8.74968 2.15313 10.9323C1.93675 13.1149 2.45185 15.3076 3.61746 17.1656L3.84117 17.5392L2.84116 21.1879L6.59955 20.1969Z" fill="#AAAFBE"/>
<path fill-rule="evenodd" clip-rule="evenodd" d="M17.9931 14.7249C17.9193 14.5996 17.7202 14.5258 17.4227 14.3781C17.1251 14.2304 15.6643 13.5101 15.3914 13.4094C15.1184 13.3088 14.9216 13.2618 14.7202 13.5593C14.5189 13.8568 13.9529 14.5258 13.7806 14.7249C13.6084 14.924 13.4316 14.9486 13.1363 14.7987C12.2643 14.4485 11.4597 13.9497 10.7582 13.3244C10.1083 12.7232 9.55111 12.0288 9.105 11.264C8.9305 10.9665 9.08487 10.8166 9.23475 10.6577C9.38464 10.4989 9.53229 10.3088 9.68218 10.1365C9.80519 9.98644 9.90544 9.8191 9.97972 9.63985C10.0189 9.55766 10.0371 9.46707 10.0328 9.37614C10.0285 9.2852 10.0018 9.19673 9.9551 9.1186C9.88128 8.97095 9.28397 7.50786 9.03788 6.91278C8.7918 6.31771 8.55243 6.41166 8.36674 6.40048C8.18106 6.38929 7.99538 6.40048 7.79852 6.40048C7.64562 6.403 7.49494 6.43756 7.35622 6.50191C7.2175 6.56626 7.09381 6.65898 6.99314 6.77408C6.65951 7.09042 6.39488 7.47232 6.21586 7.8958C6.03685 8.31928 5.94732 8.7752 5.95288 9.23493C5.95288 10.698 7.01776 12.1119 7.16764 12.311C7.31753 12.5101 9.26384 15.5123 12.2459 16.7987C12.7996 17.0376 13.3657 17.2467 13.9417 17.4251C14.5482 17.6093 15.1892 17.6499 15.8142 17.5436C16.3846 17.4586 17.5725 16.8233 17.8276 16.1298C18.0826 15.4363 18.067 14.8479 17.9931 14.7249Z" fill="#AAAFBE"/>
</svg>
